<?xml version="1.0" encoding="utf-8"?>
<!-- Generator: Adobe Illustrator 16.0.0, SVG Export Plug-In . SVG Version: 6.00 Build 0)  -->
<!DOCTYPE svg PUBLIC "-//W3C//DTD SVG 1.1//EN" "http://www.w3.org/Graphics/SVG/1.1/DTD/svg11.dtd">
<svg version="1.1" id="Layer_1" xmlns="http://www.w3.org/2000/svg" xmlns:xlink="http://www.w3.org/1999/xlink" x="0px" y="0px"
	 width="536px" height="408px" viewBox="0 0 536 408" enable-background="new 0 0 536 408" xml:space="preserve">
<g>
	<g>
		<g>
			<path fill-rule="evenodd" clip-rule="evenodd" fill="#2A4F75" stroke="#2A4F75" stroke-miterlimit="10" d="M230.651,101.008
				c7.104-3.434,14.484-1.66,21.751-2.277c0.03-0.397,0.085-0.801,0.086-1.206c0.007-3.891,0.043-7.782-0.035-11.671
				c-0.013-0.639-0.385-1.443-0.861-1.871c-3.458-3.109-5.73-6.876-6.541-11.464c-0.243-1.375-0.346-2.789-0.36-4.187
				c-0.044-4.406-0.04-8.813,0.002-13.219c0.009-0.941-0.226-1.506-1.118-1.979c-3.784-2.008-6.014-6.297-5.383-10.136
				c0.749-4.554,3.919-7.935,8.285-8.8c0.499-0.099,1.025-0.074,1.54-0.074c7.5-0.004,15.012,0.25,22.498-0.081
				c6.243-0.277,13.235,4.514,13.225,12.775c-0.011,8.201,0.093,16.41-0.222,24.601c-0.179,4.638-2.428,8.613-5.877,11.742
				c-1.262,1.144-1.743,2.288-1.685,3.977c0.132,3.83,0.042,7.668,0.042,11.704c1.455,0,2.795-0.021,4.135,0.003
				c3.837,0.072,7.679,0.067,11.51,0.271c3.807,0.203,7.108,1.826,10.061,4.166c1.652,1.31,1.627,1.342,3.897,1.059
				c0.03-0.381,0.09-0.785,0.09-1.19c0.007-4.547,0.024-9.094-0.021-13.641c-0.005-0.538-0.221-1.218-0.587-1.585
				c-5.148-5.161-6.565-8.204-7.095-15.603c-1.122,0-2.263,0-3.585,0c0-3.101,0.019-6.035-0.005-8.968
				c-0.028-3.788,1.002-7.312,2.883-10.539c3.885-6.663,9.635-10.598,17.348-11.705c12.123-1.741,24.132,7.053,25.758,19.191
				c0.519,3.868,0.355,7.828,0.51,11.918c-1.398,0-2.543,0-3.581,0c-0.351,2.095-0.543,4.042-1.017,5.918
				c-0.956,3.781-3.097,6.855-5.944,9.496c-0.5,0.463-0.884,1.319-0.895,2c-0.076,4.868-0.041,9.738-0.041,14.763
				c0.586,0.027,1.081,0.068,1.575,0.068c3.609,0.006,7.22,0.002,10.829,0.004c9.883,0.005,17.58,6.106,19.791,15.742
				c0.27,1.175,0.406,2.407,0.41,3.613c0.031,10.734,0.02,21.47,0.017,32.204c0,0.323-0.031,0.646-0.054,1.08
				c-1.032,0-2.023,0-3.164,0c0-0.588,0-1.138,0-1.688c0-10.313-0.079-20.626,0.024-30.938c0.083-8.167-5.601-14.992-12.753-16.267
				c-3.506-0.625-7.169-0.401-10.763-0.459c-0.358-0.005-0.833,0.649-1.076,1.094c-5.384,9.837-10.742,19.688-16.107,29.535
				c-0.552,1.013-1.12,2.016-1.786,3.212c-2.437-4.309-4.774-8.443-7.112-12.578c-0.082,0.01-0.163,0.02-0.245,0.029
				c0,3.788,0,7.576,0,11.473c-1.135,0-2.093,0-3.309,0c0-0.503,0.001-1.038,0-1.573c-0.009-7.219,0.042-14.438-0.044-21.657
				c-0.083-7.023-6.332-14.06-13.322-14.891c-3.007-0.358-6.071-0.283-9.108-0.276c-0.464,0.001-1.097,0.61-1.364,1.095
				c-4.329,7.856-8.612,15.738-12.905,23.614c-1.43,2.621-2.861,5.241-4.41,8.079c-0.348-0.564-0.615-0.965-0.852-1.384
				c-5.673-10.054-11.356-20.103-16.989-30.179c-0.522-0.935-1.051-1.35-2.161-1.305c-3.214,0.13-6.457-0.239-9.612,0.719
				c-7.104,2.155-11.781,8.483-11.805,16.122c-0.032,10.313-0.008,20.625-0.008,30.938c0,0.551,0,1.102,0,1.576
				c-0.232,0.112-0.31,0.178-0.394,0.187c-2.737,0.292-2.738,0.292-2.738-2.433c0-8.766-0.011-17.532,0.003-26.298
				c0.012-7.197-0.145-8.21,2.596-14.316c-1.107-0.605-1.4,0.097-1.703,0.966c-2.299,6.595-6.831,10.662-13.724,12.014
				c-8.48,1.663-17.092-3.303-19.867-11.585c-0.463-1.385-1.019-1.554-2.365-1.492c-6.027,0.279-13.424,4.947-14.916,13.893
				c-0.183,1.098-0.092,2.245-0.093,3.369c-0.006,9.047-0.003,18.094-0.003,27.142c0,0.555,0,1.109,0,1.796
				c-1.072,0-2.026,0-3.213,0c0-0.517,0-1.055,0-1.593c0-9.469-0.054-18.938,0.018-28.407c0.055-7.267,3.351-12.797,9.481-16.615
				c0.934-0.582,1.226-1.167,1.223-2.219c-0.036-11.719-0.042-23.438-0.016-35.158c0.027-12.42,8.292-23.125,20.335-26
				c15.665-3.739,30.072,6.769,32.406,21.348c0.295,1.839,0.474,3.717,0.484,5.579c0.049,9.188,0.022,18.375,0.022,27.563
				C230.651,99.683,230.651,100.228,230.651,101.008z M193.62,105.084c0.03-0.45,0.079-0.859,0.079-1.268
				c0.006-3.421,0.046-6.843-0.033-10.262c-0.015-0.654-0.358-1.43-0.801-1.925c-2.73-3.044-4.284-6.504-4.237-10.657
				c0.051-4.592,0.012-9.185,0.012-13.777c0-0.495,0-0.99,0-1.457c10.387,0,20.572,0,30.818,0c0,5.032-0.023,9.951,0.007,14.869
				c0.025,4.277-1.479,7.917-4.331,11.072c-0.414,0.458-0.695,1.207-0.708,1.827c-0.067,3.419-0.036,6.841-0.028,10.262
				c0,0.447,0.058,0.894,0.097,1.459c3.271,0,6.403,0.009,9.535-0.003c1.727-0.007,3.427-1.728,3.427-3.441
				c0.001-10.356,0.036-20.712-0.031-31.068c-0.013-1.896-0.279-3.828-0.705-5.68c-2.548-11.098-13.529-19.847-26.895-17.548
				c-10.405,1.79-19.011,10.959-19.155,22.396c-0.145,11.432-0.032,22.867-0.032,34.302c0,0.535,0,1.071,0,1.373
				C185.087,105.395,189.312,105.241,193.62,105.084z M247.869,54.555c0,0.583,0,1.084,0,1.586c0,4.075-0.053,8.151,0.026,12.225
				c0.031,1.622,0.197,3.275,0.573,4.849c1.979,8.271,10.577,13.625,18.926,11.869c7.891-1.661,13.121-8.101,13.218-16.355
				c0.051-4.355,0.012-8.712,0.005-13.068c-0.001-0.359-0.067-0.718-0.106-1.104C269.624,54.555,258.827,54.555,247.869,54.555z
				 M320.493,55.786c-1.064,1.248-2.126,2.614-3.313,3.859c-4.326,4.541-9.427,8.086-14.74,11.357
				c-0.459,0.283-0.987,0.78-1.081,1.257c-0.167,0.854-0.128,1.782-0.003,2.656c1.419,9.99,10.555,15.421,18.603,14.124
				c8.052-1.297,14.092-8.266,13.815-16.441c-0.016-0.468-0.325-1.028-0.672-1.367c-1.898-1.856-4.097-3.46-5.728-5.52
				C324.891,62.575,322.787,59.138,320.493,55.786z M215.936,68.861c-7.885,0-15.919,0-23.953,0
				c-0.021,4.828-0.403,9.585,0.033,14.266c0.506,5.44,5.936,9.854,11.159,10.098c7.173,0.334,12.252-4.9,12.665-9.577
				C216.269,78.784,215.936,73.853,215.936,68.861z M337.843,68.82c-0.213-2.835-0.162-5.718-0.688-8.492
				c-1.666-8.81-8.31-15.045-17.436-16.125c-7.893-0.933-15.699,2.847-19.921,10.612c-2.187,4.02-2.397,8.377-2.319,12.798
				c0.026,1.465,0.624,1.885,2.017,1.359c0.345-0.13,0.664-0.345,0.969-0.559c3.673-2.576,7.457-5.011,10.979-7.78
				c3.9-3.067,7.16-6.731,8.614-11.668c0.083-0.282,0.283-0.529,0.514-0.944c0.305,0.642,0.493,1.117,0.744,1.557
				c2.381,4.17,4.596,8.451,7.231,12.455c1.492,2.267,3.635,4.12,5.575,6.069C335.002,68.987,336.158,69.417,337.843,68.82z
				 M280.604,51.279c0-1.697,0.083-3.236-0.015-4.762c-0.296-4.608-3.017-8.124-7.265-8.985c-2.032-0.412-4.19-0.268-6.291-0.268
				c-6.507,0-13.015-0.025-19.52,0.115c-3.24,0.07-6.041,3.159-6.117,6.369c-0.104,4.397,2.918,7.504,7.386,7.524
				c5.946,0.026,11.891,0.006,17.838,0.007C271.206,51.279,275.792,51.279,280.604,51.279z M326.107,104.391
				c0-4.689,0-9.213,0-13.938c-5.729,2.605-11.371,2.64-17.105-0.008c0,4.757,0,9.313,0,13.946
				C314.72,104.391,320.365,104.391,326.107,104.391z M217.754,108.48c-9.218,0-18.354,0-27.53,0
				c1.457,5.875,7.445,10.169,13.903,10.104C210.581,118.521,216.531,114.13,217.754,108.48z M272.699,98.777
				c0-4.042,0-7.948,0-12.081c-5.667,2.592-11.268,2.48-16.907,0.071c0,4.146,0,8.046,0,12.01
				C261.447,98.777,266.998,98.777,272.699,98.777z M318.001,107.767c0,8.001,0,15.831,0,23.66c0.082,0.028,0.164,0.056,0.246,0.083
				c4.283-7.859,8.565-15.718,12.939-23.744C326.637,107.767,322.357,107.767,318.001,107.767z M249.675,102.164
				c4.372,7.76,8.638,15.333,12.904,22.905c0.065-0.045,0.13-0.091,0.196-0.136c0-7.602,0-15.203,0-22.769
				C258.413,102.164,254.178,102.164,249.675,102.164z M278.75,102.158c-4.317,0-8.397,0-12.467,0c0,7.546,0,15.006,0,22.466
				c0.072,0.01,0.145,0.021,0.217,0.031C270.553,117.212,274.605,109.769,278.75,102.158z M196.994,105.115
				c4.802,0,9.415,0,14.042,0c0-3.493,0-6.873,0-10.444c-4.734,2.373-9.365,2.315-14.042,0.025
				C196.994,98.3,196.994,101.657,196.994,105.115z M305.826,107.753c0.305,0.553,0.526,0.946,0.739,1.345
				c1.338,2.496,2.422,5.163,2.271,7.974c-0.185,3.426,0.564,6.414,2.524,9.189c0.75,1.061,1.29,2.267,1.936,3.402
				c0.353,0.62,0.726,1.229,1.284,2.172c0-8.291,0-16.157,0-24.081C311.683,107.753,308.887,107.753,305.826,107.753z"/>
			<path fill-rule="evenodd" clip-rule="evenodd" fill="#2A4F75" stroke="#2A4F75" stroke-miterlimit="10" d="M367.345,247.373
				c-5.602-4.226-10.984-8.281-16.363-12.343c-6.278-4.741-12.537-9.506-18.85-14.2c-0.688-0.512-1.67-0.887-2.516-0.888
				c-40.646-0.043-81.29-0.015-121.935-0.053c-9.617-0.01-18.036-3.238-24.935-10.049c-5.805-5.731-11.603-11.472-17.283-17.324
				c-9.366-9.65-4.937-25.105,8.106-28.242c5.95-1.431,11.296,0.125,15.548,4.497c4.67,4.803,9.074,9.864,13.594,14.813
				c1.453,1.592,2.892,3.197,4.369,4.768c0.299,0.318,0.734,0.711,1.114,0.72c2.797,0.061,5.596,0.032,8.7,0.032
				c-0.523-0.566-0.848-0.926-1.18-1.277c-4.223-4.498-5.7-9.727-3.737-15.626c1.95-5.862,6.101-9.368,12.244-10.388
				c1.008-0.167,2.042-0.254,3.065-0.255c15.095-0.016,30.19-0.021,45.286,0.012c1.051,0.002,1.635-0.296,2.233-1.208
				c2.723-4.151,6.869-6.418,11.391-7.993c5.621-1.958,11.43-2.581,17.388-2.159c5.62,0.399,10.966,1.647,15.908,4.388
				c2.522,1.399,4.75,3.17,6.385,5.6c1.088,1.617,2.52,1.857,4.194,0.714c4.401-3.004,10.039-2.992,14.315,0.081
				c2.57,1.847,4.271,4.343,4.919,7.434c0.219,1.049,0.626,1.24,1.557,1.233c4.922-0.033,9.845-0.015,14.767-0.015
				c0.548,0,1.096,0,1.715,0C367.345,195.577,367.345,221.332,367.345,247.373z M251.289,192.362c0,8.211,0,16.199,0,24.207
				c26.224,0,52.344,0,78.476,0c0-3.139,0-6.166,0-9.181c-7.659-1.12-13.261-6.11-14.689-13.329
				c-0.297-1.498-0.814-1.724-2.127-1.721c-19.968,0.033-39.935,0.023-59.901,0.023
				C252.494,192.362,251.941,192.362,251.289,192.362z M326.021,165.044c-0.491-0.243-1.397-0.385-1.584-0.829
				c-1.793-4.265-5.29-6.562-9.33-8.185c-8.196-3.292-16.604-3.583-25.118-1.456c-4.407,1.101-8.492,2.864-11.627,6.329
				c-1.191,1.317-1.863,2.766-1.839,4.662c0.094,7.26,0.037,14.521,0.037,21.781c0,0.545,0,1.09,0,1.765c0.684,0,1.188,0,1.692,0
				c11.617,0,23.234,0,34.852,0c0.281,0,0.62,0.098,0.83-0.024c0.374-0.217,0.905-0.528,0.963-0.869
				c0.992-5.873,4.174-10.096,9.505-12.682c0.803-0.389,0.737-0.832,0.659-1.526c-0.16-1.419-0.405-2.875-0.236-4.271
				C325.022,168.109,325.625,166.529,326.021,165.044z M364.19,240.983c0-0.922,0-1.479,0-2.035c0-21.362,0-42.725,0-64.087
				c0-0.328-0.026-0.659,0.004-0.983c0.07-0.759-0.204-1.109-1.018-1.104c-4.216,0.022-8.433-0.013-12.648,0.052
				c-0.375,0.006-0.981,0.533-1.072,0.917c-0.594,2.479-1.714,4.655-3.59,6.37c-0.74,0.678-0.64,1.121-0.158,1.87
				c1.654,2.569,2.577,5.442,2.527,8.472c-0.108,6.775-3.139,11.936-9.193,15.086c-1.819,0.947-3.895,1.4-5.98,2.125
				c0,2.652,0.058,5.461-0.028,8.265c-0.035,1.163,0.367,1.865,1.285,2.551c6.413,4.785,12.782,9.629,19.169,14.448
				C356.95,235.544,360.421,238.147,364.19,240.983z M186.962,209.34c6.04-6.3,11.928-12.44,17.798-18.563
				c-0.165-0.262-0.223-0.393-0.314-0.492c-5.898-6.479-11.672-13.075-17.744-19.386c-3.832-3.983-8.752-4.892-13.961-3.074
				c-9.461,3.303-12.125,15.223-5.04,22.446c5.741,5.855,11.577,11.617,17.38,17.41C185.639,208.235,186.262,208.724,186.962,209.34
				z M208.754,216.59c8.603,0,17.105,0,25.627,0c0-8.108,0-16.128,0-24.178c-8.586,0-17.054,0-25.627,0
				C208.754,200.503,208.754,208.53,208.754,216.59z M317.875,190.647c-0.257,7.059,5.643,13.424,13.104,13.66
				c7.594,0.239,13.942-5.814,14.042-13.328c0.101-7.647-5.909-13.666-13.366-13.854
				C324.165,176.937,317.661,183.31,317.875,190.647z M251.289,164.86c0,8.145,0,16.135,0,24.141c7.383,0,14.662,0,21.937,0
				c0-8.102,0-16.092,0-24.141C265.883,164.86,258.637,164.86,251.289,164.86z M234.428,165.042c-3.534,0-6.951-0.392-10.24,0.088
				c-5.473,0.799-9.563,5.767-9.813,10.904c-0.328,6.713,4.127,11.686,8.996,12.571c3.582,0.65,7.311,0.487,11.058,0.691
				C234.428,180.948,234.428,172.958,234.428,165.042z M247.904,189.042c0-8.146,0-16.127,0-24.13c-3.421,0-6.753,0-10.075,0
				c0,8.1,0,16.081,0,24.13C241.216,189.042,244.515,189.042,247.904,189.042z M247.927,192.453c-3.458,0-6.758,0-10.074,0
				c0,8.107,0,16.122,0,24.134c3.412,0,6.711,0,10.074,0C247.927,208.515,247.927,200.532,247.927,192.453z M342.821,178.394
				c4.105-3.17,4.874-8.565,1.854-12.726c-2.934-4.039-8.673-4.972-12.848-2.135c-3.586,2.436-5.115,7.835-3.226,10.615
				C333.979,173.282,338.646,174.812,342.821,178.394z M205.361,216.485c0-7.258,0-14.324,0-21.713
				c-5.392,5.625-10.56,11.016-15.854,16.54C194.428,214.475,199.57,216.255,205.361,216.485z"/>
			<path fill-rule="evenodd" clip-rule="evenodd" fill="#2A4F75" d="M261.906,271.271c0.488-0.03,0.943-0.081,1.398-0.081
				c5.202-0.006,10.407-0.105,15.604,0.045c2.311,0.066,4.684,0.386,6.89,1.051c3.214,0.968,5.443,3.168,5.865,6.664
				c0.423,3.497-0.828,6.34-3.826,8.322c-0.151,0.101-0.279,0.236-0.475,0.405c0.29,0.168,0.52,0.321,0.766,0.438
				c3.909,1.867,5.533,4.619,5.305,9c-0.182,3.47-2.407,6.282-6.266,7.435c-2.041,0.609-4.213,1.014-6.337,1.064
				c-6.089,0.147-12.184,0.067-18.276,0.071c-0.181,0.001-0.361-0.049-0.648-0.09C261.906,294.176,261.906,282.777,261.906,271.271z
				 M269.733,299.664c3.756,0,7.31,0.021,10.862-0.019c0.688-0.007,1.395-0.184,2.056-0.396c2.035-0.654,2.92-1.989,2.817-4.137
				c-0.096-1.996-1.229-3.51-3.533-3.688c-3.952-0.305-7.935-0.214-11.904-0.281c-0.074-0.002-0.148,0.093-0.298,0.193
				C269.733,294.031,269.733,296.772,269.733,299.664z M269.767,277.291c0,2.565,0,5.242,0,7.776c3.584,0,7.055,0.21,10.485-0.07
				c2.459-0.201,3.545-1.775,3.498-3.963c-0.043-2.04-1.228-3.516-3.659-3.684C276.701,277.116,273.283,277.291,269.767,277.291z"/>
			<path fill-rule="evenodd" clip-rule="evenodd" fill="#2A4F75" d="M338.774,271.02c6.491,0.173,12.856-0.103,19.105,0.621
				c8.146,0.942,12.553,8.381,10.107,16.009c-0.854,2.665-2.549,4.652-4.932,6.078c-0.477,0.285-0.963,0.557-1.559,0.9
				c1.296,1.862,2.546,3.659,3.796,5.455c1.246,1.788,2.491,3.575,3.904,5.603c-2.89,0-5.451,0.039-8.01-0.042
				c-0.382-0.013-0.832-0.53-1.105-0.917c-1.759-2.485-3.524-4.969-5.184-7.52c-0.621-0.954-1.33-1.28-2.424-1.238
				c-1.906,0.072-3.818,0.02-5.88,0.02c0,3.316,0,6.432,0,9.624c-2.668,0-5.18,0-7.82,0
				C338.774,294.174,338.774,282.77,338.774,271.02z M346.686,289.941c3.209-0.181,6.349-0.12,9.405-0.597
				c2.947-0.458,4.438-2.649,4.46-5.6c0.022-3.046-1.383-5.3-4.255-5.744c-3.142-0.486-6.372-0.407-9.61-0.578
				C346.686,281.715,346.686,285.661,346.686,289.941z"/>
			<path fill-rule="evenodd" clip-rule="evenodd" fill="#2A4F75" d="M148.867,294.641c2.533,3.64,5.026,7.223,7.686,11.045
				c-2.884,0-5.444,0.039-8.001-0.042c-0.381-0.012-0.83-0.528-1.103-0.914c-1.812-2.56-3.613-5.128-5.353-7.736
				c-0.505-0.758-1.076-1.043-1.965-1.021c-2.002,0.052-4.006,0.017-6.157,0.017c0,3.294,0,6.407,0,9.698
				c-2.474,0-4.801,0.023-7.126-0.034c-0.265-0.006-0.604-0.432-0.752-0.738c-0.129-0.269-0.043-0.644-0.043-0.971
				c-0.001-10.305-0.002-20.608,0-30.912c0-1.842,0.006-1.846,1.834-1.846c4.45-0.002,8.899,0.01,13.349-0.004
				c2.994-0.009,5.879,0.476,8.535,1.914c4.071,2.203,6.069,5.66,6.149,10.28c0.081,4.671-1.781,8.232-5.876,10.567
				C149.683,294.149,149.329,294.366,148.867,294.641z M134.031,289.938c3.209-0.178,6.353-0.108,9.41-0.59
				c3.044-0.479,4.518-2.738,4.467-5.878c-0.048-3.026-1.594-5.193-4.662-5.544c-3.021-0.345-6.111-0.075-9.215-0.075
				C134.031,281.709,134.031,285.657,134.031,289.938z"/>
			<path fill-rule="evenodd" clip-rule="evenodd" fill="#2A4F75" d="M86.012,271.283c2.711,0,5.254,0,7.922,0
				c0,4.477,0,8.864,0,13.417c0.561,0.027,1.007,0.068,1.454,0.069c4.31,0.005,8.621-0.049,12.93,0.034
				c1.295,0.025,1.564-0.419,1.539-1.607c-0.071-3.419-0.025-6.84-0.024-10.26c0-0.507,0-1.014,0-1.636c2.626,0,5.124,0,7.727,0
				c0,11.427,0,22.825,0,34.308c-2.52,0-4.985,0-7.631,0c-0.031-0.47-0.09-0.959-0.091-1.448c-0.008-3.795-0.034-7.59,0.014-11.384
				c0.014-1.043-0.331-1.381-1.371-1.37c-4.403,0.045-8.808,0.052-13.21-0.004c-1.096-0.014-1.328,0.392-1.317,1.396
				c0.047,4.212,0.02,8.425,0.02,12.881c-2.497,0-4.909,0.016-7.32-0.026c-0.211-0.004-0.522-0.346-0.597-0.59
				c-0.106-0.344-0.041-0.741-0.041-1.116c-0.001-10.354,0-20.707,0-31.06C86.012,272.383,86.012,271.879,86.012,271.283z"/>
			<path fill-rule="evenodd" clip-rule="evenodd" fill="#2A4F75" d="M214.683,271.251c0.53-0.025,0.946-0.063,1.363-0.063
				c7.686-0.004,15.373,0.026,23.059-0.032c1.265-0.01,1.665,0.376,1.555,1.594c-0.092,1.022-0.091,2.066-0.001,3.09
				c0.106,1.212-0.285,1.629-1.555,1.611c-4.967-0.069-9.937,0.016-14.903-0.057c-1.335-0.02-1.822,0.331-1.737,1.717
				c0.117,1.906,0.029,3.825,0.029,5.929c5.382,0,10.646,0,15.989,0c0,2.088,0,3.986,0,6.041c-0.553,0.034-1.094,0.096-1.635,0.097
				c-4.312,0.009-8.624,0.032-12.935-0.014c-1.083-0.012-1.485,0.302-1.442,1.433c0.083,2.189,0.024,4.384,0.024,6.721
				c6.315,0,12.48,0,18.85,0c0,2,0.041,3.859-0.051,5.713c-0.012,0.238-0.712,0.626-1.099,0.633c-3.045,0.053-6.092,0.03-9.139,0.03
				c-5.062,0-10.124-0.021-15.185,0.018c-0.962,0.008-1.31-0.259-1.308-1.262c0.03-10.733,0.018-21.466,0.023-32.198
				C214.584,271.977,214.636,271.702,214.683,271.251z"/>
			<path fill-rule="evenodd" clip-rule="evenodd" fill="#2A4F75" d="M401.062,271.322c0,2.023,0,3.928,0,6.051
				c-6.022,0-11.986,0-18.059,0c0,2.623,0,5.03,0,7.633c5.231,0,10.49,0,15.843,0c0,2.089,0,3.988,0,6.121
				c-5.231,0-10.488,0-15.848,0c0,2.823,0,5.417,0,8.159c6.17,0,12.332,0,18.615,0c0,2.168,0,4.192,0,6.313
				c-8.776,0-17.556,0-26.438,0c0-11.416,0-22.778,0-34.277C383.753,271.322,392.337,271.322,401.062,271.322z"/>
			<path fill-rule="evenodd" clip-rule="evenodd" fill="#2A4F75" d="M468.547,271.276c2.618,0,5.078,0,7.731,0
				c0,0.544,0,1.042,0,1.539c-0.001,6.14,0.005,12.28-0.004,18.42c-0.012,8.981-5.358,14.641-14.334,14.972
				c-2.172,0.079-4.426-0.129-6.534-0.646c-5.932-1.454-9.746-5.867-10.096-12.493c-0.379-7.191-0.086-14.419-0.086-21.756
				c2.521,0,5.02,0,7.752,0c0,0.54-0.001,1.081,0,1.622c0,5.577-0.063,11.156,0.036,16.731c0.032,1.802,0.272,3.664,0.807,5.377
				c0.947,3.042,3.469,4.533,7.006,4.516c3.575-0.018,6.132-1.621,7.05-4.692c0.435-1.456,0.622-3.033,0.642-4.559
				c0.072-5.765,0.029-11.53,0.03-17.295C468.547,272.499,468.547,271.985,468.547,271.276z"/>
			<path fill-rule="evenodd" clip-rule="evenodd" fill="#2A4F75" d="M299.575,271.261c2.544,0,5.011,0,7.678,0
				c0,0.617,0,1.162,0,1.706c0,5.673-0.06,11.346,0.037,17.017c0.029,1.707,0.28,3.475,0.805,5.094
				c0.995,3.069,3.642,4.598,7.176,4.477c3.636-0.126,6.035-1.734,6.929-4.859c0.381-1.333,0.581-2.76,0.596-4.147
				c0.065-5.859,0.03-11.719,0.031-17.579c0-0.51,0-1.021,0-1.656c2.582,0,5.077,0,7.693,0c0.027,0.471,0.077,0.924,0.077,1.377
				c0.005,6,0.046,12.001-0.024,18.001c-0.02,1.718-0.201,3.471-0.594,5.141c-1.313,5.59-5.662,9.369-11.415,10.168
				c-3.296,0.459-6.55,0.371-9.73-0.637c-5.438-1.724-9.097-6.371-9.298-12.458c-0.232-7.024-0.08-14.062-0.091-21.093
				C299.444,271.678,299.506,271.544,299.575,271.261z"/>
			<path fill-rule="evenodd" clip-rule="evenodd" fill="#2A4F75" d="M442.217,305.683c-2.602,0-5.114,0.033-7.623-0.042
				c-0.303-0.009-0.698-0.548-0.863-0.924c-0.792-1.796-1.57-3.601-2.247-5.442c-0.318-0.865-0.811-1.102-1.673-1.096
				c-4.543,0.032-9.087,0.039-13.63-0.005c-0.936-0.009-1.443,0.272-1.778,1.168c-0.688,1.838-1.46,3.645-2.257,5.438
				c-0.161,0.362-0.579,0.858-0.891,0.868c-2.422,0.071-4.847,0.039-7.43,0.039c0.174-0.498,0.267-0.843,0.409-1.164
				c4.773-10.72,9.564-21.433,14.31-32.165c0.404-0.916,0.902-1.233,1.881-1.194c1.87,0.075,3.748-0.025,5.618,0.059
				c0.438,0.02,1.081,0.379,1.25,0.753c4.992,11.082,9.937,22.186,14.887,33.286C442.197,305.302,442.188,305.354,442.217,305.683z
				 M423.169,279.239c-0.117-0.011-0.233-0.021-0.35-0.031c-1.772,4.289-3.546,8.578-5.367,12.982c3.772,0,7.296,0,11.069,0
				C426.688,287.752,424.928,283.495,423.169,279.239z"/>
			<path fill-rule="evenodd" clip-rule="evenodd" fill="#2A4F75" d="M174.153,271.191c2.555,0,5.083-0.051,7.605,0.051
				c0.41,0.017,0.963,0.631,1.163,1.093c3.118,7.214,6.187,14.447,9.27,21.676c0.218,0.512,0.459,1.014,0.813,1.79
				c0.318-0.652,0.549-1.082,0.742-1.528c3.124-7.211,6.27-14.413,9.335-21.648c0.48-1.134,1.069-1.538,2.289-1.469
				c1.958,0.111,3.926,0.03,6.115,0.03c-0.204,0.564-0.331,0.984-0.503,1.385c-4.587,10.604-9.195,21.199-13.745,31.82
				c-0.443,1.035-0.983,1.389-2.085,1.329c-1.775-0.098-3.563,0.021-5.339-0.062c-0.446-0.021-1.112-0.358-1.272-0.728
				c-4.833-11.109-9.615-22.24-14.403-33.369C174.12,271.524,174.138,271.474,174.153,271.191z"/>
			<path fill-rule="evenodd" clip-rule="evenodd" fill="#2A4F75" d="M70.549,305.618c-2.731,0-5.241,0-7.886,0
				c0-9.323,0-18.574,0-28.003c-3.704,0-7.277,0-10.931,0c0-2.173,0-4.168,0-6.297c9.887,0,19.782,0,29.782,0
				c0,2.015,0,4.045,0,6.24c-3.59,0-7.169,0-10.966,0C70.549,287.005,70.549,296.288,70.549,305.618z"/>
			<path fill-rule="evenodd" clip-rule="evenodd" fill="#2A4F75" d="M170.133,305.63c-2.551,0-5.016,0-7.59,0
				c0-11.462,0-22.859,0-34.352c2.529,0,4.994,0,7.59,0C170.133,282.679,170.133,294.079,170.133,305.63z"/>
			<path fill-rule="evenodd" clip-rule="evenodd" fill="#2A4F75" stroke="#2A4F75" stroke-miterlimit="10" d="M184.537,121.534
				c1.225,0.907,2.006,1.485,2.861,2.118c-2.123,3.16-3.799,6.468-4.628,10.146c-1.399,6.203-0.271,11.763,4.215,16.469
				c0.3,0.314,0.644,0.756,0.655,1.146c0.061,2.334,0.03,4.67,0.03,7.1c-1.053,0-2.011,0-3.191,0c0-1.718,0.041-3.439-0.022-5.156
				c-0.021-0.567-0.15-1.262-0.499-1.666c-5.323-6.16-6.04-13.183-3.632-20.62C181.362,127.869,183.039,124.874,184.537,121.534z"/>
			<path fill-rule="evenodd" clip-rule="evenodd" fill="#2A4F75" stroke="#2A4F75" stroke-miterlimit="10" d="M237.373,122.793
				c0.961,0,1.836,0,2.856,0c0,9.517,0,19.038,0,28.681c-0.901,0-1.843,0-2.856,0C237.373,141.944,237.373,132.453,237.373,122.793z
				"/>
			<path fill-rule="evenodd" clip-rule="evenodd" fill="#2A4F75" stroke="#2A4F75" stroke-miterlimit="10" d="M342.315,154.629
				c-1.028,0-1.902,0-2.858,0c0-9.508,0-18.935,0-28.445c0.968,0,1.874,0,2.858,0C342.315,135.67,342.315,145.099,342.315,154.629z"
				/>
			<path fill-rule="evenodd" clip-rule="evenodd" fill="#2A4F75" stroke="#2A4F75" stroke-miterlimit="10" d="M289.955,140.543
				c-1.03,0-1.991,0-3.04,0c0-5.924,0-11.795,0-17.741c1.033,0,1.992,0,3.04,0C289.955,128.694,289.955,134.531,289.955,140.543z"/>
			<path fill-rule="evenodd" clip-rule="evenodd" fill="#2A4F75" stroke="#2A4F75" stroke-miterlimit="10" d="M262.974,151.519
				c0-2.44,0-4.805,0-7.282c0.964,0,1.915,0,2.987,0c0,2.41,0,4.808,0,7.282C264.95,151.519,263.998,151.519,262.974,151.519z"/>
			<path fill-rule="evenodd" clip-rule="evenodd" fill="#2A4F75" stroke="#2A4F75" stroke-miterlimit="10" d="M267.229,73.587
				c-2.03,0-3.971,0-6.012,0c0-3.311,0-6.551,0-9.861c2.043,0,3.983,0,6.012,0C267.229,67.003,267.229,70.213,267.229,73.587z"/>
		</g>
	</g>
	<g>
		<g>
			<path fill-rule="evenodd" clip-rule="evenodd" fill="#EBA259" d="M245.748,359.271c5.202-9.522,10.403-19.043,15.605-28.564
				c0.27-0.494,0.553-0.98,0.829-1.471c1.794,0,3.589,0,5.384,0c-1.197,2.285-2.371,4.583-3.598,6.853
				c-4.174,7.733-8.368,15.456-12.553,23.183C249.526,359.271,247.637,359.271,245.748,359.271z"/>
			<path fill-rule="evenodd" clip-rule="evenodd" fill="#EBA259" d="M354.277,356.044c-2.009,0-3.79,0-5.779,0
				c0.716-3.734,1.412-7.364,2.178-11.361c-0.463,0.489-0.712,0.712-0.914,0.97c-1.945,2.492-3.879,4.994-5.826,7.484
				c-1.039,1.329-3.226,1.03-3.887-0.519c-1.075-2.51-2.148-5.021-3.227-7.528c-0.034-0.079-0.12-0.137-0.328-0.367
				c-0.784,3.853-1.545,7.58-2.309,11.324c-1.937,0-3.763,0-5.754,0c1.483-7.417,2.947-14.74,4.438-22.206
				c1.563,0,3.066-0.064,4.557,0.048c0.345,0.025,0.772,0.598,0.945,1.01c1.435,3.431,2.818,6.883,4.222,10.326
				c0.171,0.418,0.367,0.824,0.637,1.427c2.307-2.93,4.486-5.696,6.664-8.464c0.379-0.482,0.857-0.918,1.118-1.457
				c1.604-3.309,4.425-3.232,7.604-2.712C357.172,341.353,355.728,348.683,354.277,356.044z"/>
			<path fill-rule="evenodd" clip-rule="evenodd" fill="#EBA259" d="M315.364,349.498c1.205,2.158,2.387,4.275,3.69,6.611
				c-2.157,0-4.069,0.04-5.978-0.036c-0.349-0.015-0.792-0.435-1.001-0.782c-0.875-1.451-1.677-2.946-2.505-4.425
				c-0.726-1.294-1.945-0.55-2.929-0.613c-0.263-0.017-0.72,0.788-0.848,1.28c-0.379,1.452-0.637,2.935-0.96,4.489
				c-2.028,0-4.032,0-6.221,0c0.453-2.377,0.879-4.678,1.334-6.973c0.925-4.659,1.879-9.314,2.789-13.977
				c0.164-0.841,0.422-1.299,1.431-1.264c3.438,0.124,6.892-0.028,10.314,0.25c3.888,0.313,6.221,2.297,6.834,5.292
				c0.719,3.494-0.858,7.193-3.878,9.047C316.802,348.79,316.116,349.102,315.364,349.498z M306.995,345.357
				c1.403,0,2.622,0.022,3.839-0.01c0.514-0.014,1.033-0.104,1.533-0.226c1.789-0.437,2.914-1.987,2.755-3.757
				c-0.146-1.631-1.248-2.477-3.323-2.525c-0.895-0.021-1.798-0.077-2.682,0.025c-0.353,0.041-0.878,0.411-0.952,0.721
				C307.73,341.41,307.406,343.259,306.995,345.357z"/>
			<path fill-rule="evenodd" clip-rule="evenodd" fill="#EBA259" d="M292.939,337.38c-1.776,1.424-3.201,2.567-4.43,3.552
				c-1.365-0.76-2.526-1.698-3.85-2.078c-2.563-0.736-4.894,0.049-6.641,2.055c-1.811,2.077-2.48,4.56-1.644,7.246
				c0.847,2.721,4.308,3.981,7.489,2.722c1.113-0.44,2.09-1.227,3.216-1.907c1.06,1.08,2.229,2.274,3.442,3.509
				c-1.24,1.642-2.87,2.724-4.787,3.334c-2.896,0.923-5.866,0.986-8.79,0.226c-5.456-1.423-8.207-6.265-6.981-12.086
				c1.279-6.064,6.187-10.195,12.396-10.462c2.379-0.102,4.757-0.067,6.876,1.136C290.5,335.342,291.591,336.361,292.939,337.38z"/>
			<path fill-rule="evenodd" clip-rule="evenodd" fill="#EBA259" d="M190.56,356.11c1-5.019,1.964-9.858,2.928-14.7
				c0.432-2.17,0.825-4.35,1.33-6.502c0.096-0.409,0.631-1.024,0.965-1.024c3.583-0.016,7.179-0.094,10.746,0.183
				c3.814,0.296,6.024,2.184,6.746,5.21c0.788,3.304-0.668,7.009-3.542,8.916c-0.702,0.467-1.467,0.836-2.352,1.331
				c0.588,1.051,1.178,2.098,1.762,3.146c0.59,1.062,1.174,2.125,1.9,3.438c-2.183,0-4.135,0.032-6.083-0.035
				c-0.303-0.01-0.679-0.427-0.869-0.746c-0.818-1.377-1.667-2.746-2.337-4.196c-0.719-1.555-2.02-0.86-3.074-0.875
				c-0.305-0.005-0.757,0.847-0.908,1.374c-0.336,1.173-0.48,2.4-0.802,3.579c-0.095,0.347-0.51,0.85-0.796,0.861
				C194.35,356.148,192.521,356.11,190.56,356.11z M198.96,345.467c1.968-0.133,3.807-0.102,5.583-0.421s2.752-2.049,2.51-3.882
				c-0.198-1.498-1.245-2.271-3.192-2.322c-0.944-0.025-1.893-0.064-2.829,0.022c-0.314,0.028-0.793,0.377-0.858,0.658
				C199.737,341.393,199.393,343.286,198.96,345.467z"/>
			<path fill-rule="evenodd" clip-rule="evenodd" fill="#EBA259" d="M181.659,351.237c-0.308,1.529-0.535,2.866-0.873,4.174
				c-0.075,0.286-0.547,0.669-0.838,0.67c-5.607,0.04-11.215,0.03-17.089,0.03c1.5-7.515,2.967-14.861,4.436-22.218
				c5.803,0,11.453,0,17.354,0c-0.292,1.502-0.502,2.923-0.888,4.296c-0.077,0.275-0.813,0.51-1.25,0.518
				c-2.831,0.046-5.664,0.079-8.493-0.003c-1.164-0.034-1.757,0.264-1.812,1.493c-0.03,0.692-0.246,1.376-0.412,2.244
				c3.269,0,6.444,0,9.832,0c-0.312,1.643-0.585,3.084-0.89,4.688c-2.715,0-5.396,0.067-8.07-0.028
				c-1.343-0.047-2.155,0.216-2.194,1.739c-0.019,0.734-0.25,1.464-0.421,2.396C173.958,351.237,177.749,351.237,181.659,351.237z"
				/>
			<path fill-rule="evenodd" clip-rule="evenodd" fill="#EBA259" d="M220.039,355.91c1.26-6.288,2.506-12.607,3.795-18.918
				c0.647-3.166,0.682-3.181,3.932-3.151c2.686,0.024,5.386-0.048,8.053,0.206c4.016,0.383,6.195,2.218,6.879,5.394
				c0.754,3.503-0.705,7.246-3.867,8.989c-1.601,0.884-3.501,1.264-5.304,1.722c-0.847,0.215-1.784,0.091-2.68,0.093
				c-3.481,0.009-3.481,0.004-4.104,3.483c-0.428,2.387-0.428,2.389-2.855,2.386c-1.179-0.003-2.358-0.017-3.538-0.032
				C220.272,356.08,220.195,355.999,220.039,355.91z M228.394,345.471c1.988-0.131,3.785-0.109,5.527-0.403
				c1.701-0.287,2.592-1.728,2.551-3.568c-0.031-1.402-0.701-2.359-2.159-2.526c-1.517-0.174-3.068-0.038-4.622-0.038
				C229.269,341.06,228.868,343.082,228.394,345.471z"/>
		</g>
	</g>
</g>
</svg>
